# xmcd CD database file
# Copyright 1993-1996 (C) Ti Kan
#
# Track frame offsets:
#    182
#    15782
#    29732
#    45482
#    59712
#    75275
#    92195
#    110732
#    125767
#    139287
#    153810
#    169862
#    184237
#    196807
#    212735
#
# Disc length: 3012 seconds
#
# Revision: 0
# Processed by: cddbd v1.4b41PL1 Copyright (c) Steve Scherf et al.
# Submitted via: MyCDplayer 2.1.4  (wjohn@fix.net)
#
DISCID=cd0bc20f
DTITLE=Miscellaneous Artists - Hot No.1 Country Hits
DYEAR=1900
DGENRE=
TTITLE0=Down Home - ALABAMA
TTITLE1=Brother Jukebox - MARK CHESNUTT
TTITLE2=Down To My Last Teardrop - TANYA TUCKER
TTITLE3=Where Are You Now - CLINT BLACK
TTITLE4=Rockin' Years - DOLLY PARTON and RICKY VAN SHEL
TTITLE5=I've Come To Expect It From You-GEORGE STRAIT
TTITLE6=She's In Love WithThe Boy - TRISHA YEARWOOD
TTITLE7=Brotherly Love - KEITH WHITLEY
TTITLE8=Brand New Man - BROOKS and DUNN
TTITLE9=Don't Tell Me What To Do - PAM TILLIS
TTITLE10=I Thought It Was You - DOUG STONE
TTITLE11=I'd Love You All Over Again - ALAN JACKSON
TTITLE12=If The Devil Danced - JOE DIFFIE
TTITLE13=Daddy's Come Around - PAUL OVERSTREET
TTITLE14=Small Town Saturday Night - HAL KETCHUM
EXTD=
EXTT0=
EXTT1=
EXTT2=
EXTT3=
EXTT4=
EXTT5=
EXTT6=
EXTT7=
EXTT8=
EXTT9=
EXTT10=
EXTT11=
EXTT12=
EXTT13=
EXTT14=
PLAYORDER=
